<svg xmlns="http://www.w3.org/2000/svg" width="56" height="56" viewBox="0 0 56 56">
  <g id="icon_eth" transform="translate(-230 -113)">
    <g id="楕円形_297" data-name="楕円形 297" transform="translate(230 113)" fill="#fff" stroke="#707070" stroke-width="1">
      <circle cx="28" cy="28" r="28" stroke="none"/>
      <circle cx="28" cy="28" r="27.5" fill="none"/>
    </g>
    <g id="グループ_377" data-name="グループ 377" transform="translate(72)">
      <g id="グループ_376" data-name="グループ 376" transform="translate(130.25 85.25)">
        <path id="パス_237" data-name="パス 237" d="M131.562,42.736c-2.865-2.865-8.087-2.523-13.528.411-.812.437-.752,2.233.017,2.7a31.958,31.958,0,0,1,10.391,10.407,1.862,1.862,0,0,0,2.709.008q-.15-.279-.308-.556.158.278.308.556C134.085,50.824,134.427,45.6,131.562,42.736Zm-6.055,6.055a33.95,33.95,0,0,0-5.091-4.207,14.332,14.332,0,0,1,5.813-1.5,5.036,5.036,0,0,1,3.679,1.3c1.876,1.876,1.653,5.506-.194,9.494a34.271,34.271,0,0,0-4.207-5.091Z" transform="translate(-61.792 -0.006)" fill="#ffc750" fill-rule="evenodd"/>
        <path id="パス_238" data-name="パス 238" d="M132.869,122.012a22.638,22.638,0,0,0-1.676-3.923,1.854,1.854,0,0,0-2.709-.008,31.931,31.931,0,0,1-10.391,10.4,1.857,1.857,0,0,0-.017,2.7,17.769,17.769,0,0,0,8.181,2.39A7.321,7.321,0,0,0,131.6,131.6C133.7,129.5,134.148,126.1,132.869,122.012Zm-2.92,7.935c-1.876,1.876-5.5,1.651-9.491-.2a35.058,35.058,0,0,0,9.3-9.29c1.844,3.986,2.067,7.612.192,9.486Z" transform="translate(-61.834 -61.83)" fill="#ff6895" fill-rule="evenodd"/>
        <path id="パス_239" data-name="パス 239" d="M56.249,43.141a22.494,22.494,0,0,0-3.925-1.676c-4.086-1.279-7.491-.831-9.587,1.265a7.323,7.323,0,0,0-1.977,5.348,17.8,17.8,0,0,0,2.388,8.183,1.859,1.859,0,0,0,2.7-.019,31.924,31.924,0,0,1,10.415-10.4,1.852,1.852,0,0,0-.018-2.7ZM44.586,53.876c-1.846-3.988-2.071-7.618-.2-9.494,1.449-1.449,4.019-1.694,7.235-.685a19.149,19.149,0,0,1,2.257.874,35.052,35.052,0,0,0-9.3,9.3Z" transform="translate(-0.008)" fill="#5fc5a6" fill-rule="evenodd"/>
        <path id="パス_240" data-name="パス 240" d="M56.259,128.48a31.7,31.7,0,0,1-10.415-10.414,1.854,1.854,0,0,0-2.7.019,22.605,22.605,0,0,0-1.674,3.921c-1.281,4.088-.831,7.493,1.263,9.589a7.292,7.292,0,0,0,5.328,1.979,14.323,14.323,0,0,0,4.26-.716,22.65,22.65,0,0,0,3.925-1.676c.632-.338.781-2.237.017-2.7Zm-4.641,2.148c-3.215,1.007-5.785.763-7.234-.687s-1.694-4.019-.686-7.235a19.012,19.012,0,0,1,.874-2.255,35.293,35.293,0,0,0,9.3,9.3,18.852,18.852,0,0,1-2.257.876Z" transform="translate(0 -61.825)" fill="#5666f6" fill-rule="evenodd"/>
        <path id="パス_241" data-name="パス 241" d="M93.642,85.771l5.22-8.2,5.22,8.2-5.22,2.983Z" transform="translate(-42.612 -29.662)" fill="#1f294f" fill-rule="evenodd"/>
        <path id="パス_242" data-name="パス 242" d="M93.642,126.982l5.22,2.983,5.22-2.983-5.22,7.084-5.22-7.084Z" transform="translate(-42.612 -69.472)" fill="#1f294f" fill-rule="evenodd"/>
        <path id="パス_243" data-name="パス 243" d="M113.03,54.487a24.5,24.5,0,0,0-2.365,1.265,23.127,23.127,0,0,0-2.384-1.271,27.514,27.514,0,0,1,2.366-1.432Q111.845,53.693,113.03,54.487Z" transform="translate(-54.406 -9.909)" fill="#5f9a34" fill-rule="evenodd"/>
        <path id="パス_244" data-name="パス 244" d="M176.721,110.668q-.659,1.221-1.436,2.372a24.632,24.632,0,0,0-1.273-2.38,24.97,24.97,0,0,0,1.271-2.374Q176.075,109.468,176.721,110.668Z" transform="translate(-107.362 -54.41)" fill="#ff512f" fill-rule="evenodd"/>
        <path id="パス_245" data-name="パス 245" d="M113.03,175.3c-.164.112-.328.219-.493.325q-.922.594-1.889,1.113-1.18-.634-2.367-1.432a23.124,23.124,0,0,0,2.384-1.271,23.691,23.691,0,0,0,2.365,1.265Z" transform="translate(-54.406 -107.382)" fill="#552990" fill-rule="evenodd"/>
        <path id="パス_246" data-name="パス 246" d="M55.751,110.65a23.565,23.565,0,0,0-1.273,2.386q-.773-1.148-1.432-2.367.66-1.227,1.439-2.384a23.682,23.682,0,0,0,1.265,2.365Z" transform="translate(-9.907 -54.409)" fill="#204fa0" fill-rule="evenodd"/>
      </g>
    </g>
  </g>
</svg>
